<?xml version="1.0" encoding="UTF-8" standalone="no"?>
<!-- Created with Inkscape (http://www.inkscape.org/) -->

<svg
   xmlns:dc="http://purl.org/dc/elements/1.1/"
   xmlns:cc="http://creativecommons.org/ns#"
   xmlns:rdf="http://www.w3.org/1999/02/22-rdf-syntax-ns#"
   xmlns:svg="http://www.w3.org/2000/svg"
   xmlns="http://www.w3.org/2000/svg"
   xmlns:sodipodi="http://sodipodi.sourceforge.net/DTD/sodipodi-0.dtd"
   xmlns:inkscape="http://www.inkscape.org/namespaces/inkscape"
   width="744.09448819"
   height="1052.3622047"
   id="svg2"
   version="1.1"
   inkscape:version="0.48.2 r9819"
   sodipodi:docname="Nuovo documento 1">
  <defs
     id="defs4">
    <filter
       inkscape:collect="always"
       id="filter3799">
      <feGaussianBlur
         inkscape:collect="always"
         stdDeviation="8.9474206"
         id="feGaussianBlur3801" />
    </filter>
  </defs>
  <sodipodi:namedview
     id="base"
     pagecolor="#ffffff"
     bordercolor="#666666"
     borderopacity="1.0"
     inkscape:pageopacity="0.0"
     inkscape:pageshadow="2"
     inkscape:zoom="0.7"
     inkscape:cx="197.08376"
     inkscape:cy="643.7811"
     inkscape:document-units="px"
     inkscape:current-layer="layer1"
     showgrid="false"
     inkscape:window-width="1103"
     inkscape:window-height="642"
     inkscape:window-x="179"
     inkscape:window-y="24"
     inkscape:window-maximized="0" />
  <metadata
     id="metadata7">
    <rdf:RDF>
      <cc:Work
         rdf:about="">
        <dc:format>image/svg+xml</dc:format>
        <dc:type
           rdf:resource="http://purl.org/dc/dcmitype/StillImage" />
        <dc:title></dc:title>
      </cc:Work>
    </rdf:RDF>
  </metadata>
  <g
     inkscape:label="Livello 1"
     inkscape:groupmode="layer"
     id="layer1">
    <path
       sodipodi:type="star"
       style="fill:#300000;fill-opacity:0.90082643;filter:url(#filter3799)"
       id="path2985-4"
       sodipodi:sides="14"
       sodipodi:cx="151.42857"
       sodipodi:cy="429.50504"
       sodipodi:r1="187.92731"
       sodipodi:r2="226.41843"
       sodipodi:arg1="0.74969905"
       sodipodi:arg2="0.97409853"
       inkscape:flatsided="false"
       inkscape:rounded="0"
       inkscape:randomized="0"
       d="m 288.97144,557.56218 -10.31519,59.2352 -58.86775,-12.23923 -34.99485,48.89348 -47.72761,-36.56893 -52.743357,28.86781 -27.134432,-53.6557 -60.0453889,3.12451 -1.1669438,-60.1153 -55.4546993,-23.23764 25.031671,-54.66833 -39.880526,-44.99728 46.272457,-38.39363 -16.407526,-57.84465 58.348415,-14.5146 10.315186,-59.2352 58.867754,12.23923 34.99485,-48.89348 47.72761,36.56893 52.74335,-28.8678 27.13444,53.65569 60.04539,-3.12451 1.16694,60.1153 55.4547,23.23764 -25.03167,54.66833 39.88052,44.99728 -46.27245,38.39363 16.40752,57.84466 z"
       inkscape:transform-center-x="15.295669"
       inkscape:transform-center-y="-4.1835796"
       transform="matrix(0.95632634,-0.29230109,0.29230109,0.95632634,98.211501,125.87794)" />
    <path
       sodipodi:type="star"
       style="fill:#800000"
       id="path2985"
       sodipodi:sides="14"
       sodipodi:cx="151.42857"
       sodipodi:cy="429.50504"
       sodipodi:r1="187.92731"
       sodipodi:r2="226.41843"
       sodipodi:arg1="0.74969905"
       sodipodi:arg2="0.97409853"
       inkscape:flatsided="false"
       inkscape:rounded="0"
       inkscape:randomized="0"
       d="m 288.97144,557.56218 -10.31519,59.2352 -58.86775,-12.23923 -34.99485,48.89348 -47.72761,-36.56893 -52.743357,28.86781 -27.134432,-53.6557 -60.0453889,3.12451 -1.1669438,-60.1153 -55.4546993,-23.23764 25.031671,-54.66833 -39.880526,-44.99728 46.272457,-38.39363 -16.407526,-57.84465 58.348415,-14.5146 10.315186,-59.2352 58.867754,12.23923 34.99485,-48.89348 47.72761,36.56893 52.74335,-28.8678 27.13444,53.65569 60.04539,-3.12451 1.16694,60.1153 55.4547,23.23764 -25.03167,54.66833 39.88052,44.99728 -46.27245,38.39363 16.40752,57.84466 z"
       inkscape:transform-center-x="15.295669"
       inkscape:transform-center-y="-4.1835796"
       transform="matrix(0.95632634,-0.29230109,0.29230109,0.95632634,87.749199,113.02331)" />
    <text
       xml:space="preserve"
       style="font-size:105.01587677px;font-style:normal;font-variant:normal;font-weight:bold;font-stretch:normal;text-align:center;line-height:125%;letter-spacing:0px;word-spacing:0px;text-anchor:middle;fill:#ffff00;fill-opacity:1;stroke:none;font-family:Impact;-inkscape-font-specification:Impact Bold"
       x="201.69328"
       y="533.2442"
       id="text2987"
       sodipodi:linespacing="125%"
       transform="matrix(0.95632634,-0.29230109,0.29230109,0.95632634,0,0)"><tspan
         sodipodi:role="line"
         id="tspan2989"
         x="201.69328"
         y="533.2442">Very</tspan><tspan
         sodipodi:role="line"
         x="201.69328"
         y="664.51404"
         id="tspan2991">good!</tspan></text>
  </g>
</svg>
